<svg width="38" height="38" viewBox="0 0 38 38" fill="none" xmlns="http://www.w3.org/2000/svg">
<path d="M10.5542 3.8C10.5542 4.80782 10.1498 5.77437 9.43003 6.48701C8.71022 7.19964 7.73394 7.6 6.71597 7.6C5.698 7.6 4.72172 7.19964 4.00191 6.48701C3.28209 5.77437 2.87771 4.80782 2.87771 3.8C2.87771 2.79218 3.28209 1.82563 4.00191 1.11299C4.72172 0.400356 5.698 0 6.71597 0C7.73394 0 8.71022 0.400356 9.43003 1.11299C10.1498 1.82563 10.5542 2.79218 10.5542 3.8ZM3.83727 9.5C1.70704 9.5 -0.000991821 11.191 -0.000991821 13.3V23.7C-0.000991821 24.2523 0.446723 24.7 0.999008 24.7H2.83727C3.38956 24.7 3.83727 25.1477 3.83727 25.7V37C3.83727 37.5523 4.28499 38 4.83727 38H8.29184C9.19097 38 9.67597 36.8598 9.15579 36.1265C8.6088 35.3553 8.1448 34.5268 7.7729 33.6543C7.07755 32.023 6.71822 30.2706 6.71597 28.5C6.72007 26.1693 7.34274 23.8806 8.52161 21.8631C9.60323 20.0121 11.1182 18.4491 12.9355 17.3037C13.2391 17.1124 13.4329 16.7836 13.4329 16.4248V13.3C13.4329 11.191 11.7249 9.5 9.59467 9.5H3.83727ZM20.1903 11.4C19.638 11.4 19.1903 11.8477 19.1903 12.4V25.6C19.1903 26.1523 19.638 26.6 20.1903 26.6H29.2486C29.5616 26.6 29.8566 26.7466 30.0457 26.9962L34.3292 32.6505C34.6604 33.0878 35.282 33.1766 35.7224 32.8496L37.1872 31.7619C37.6336 31.4304 37.7239 30.7984 37.3881 30.3552L31.9648 23.1962C31.7758 22.9466 31.4808 22.8 31.1677 22.8H24.0286C23.4763 22.8 23.0286 22.3523 23.0286 21.8V12.4C23.0286 11.8477 22.5809 11.4 22.0286 11.4H20.1903ZM17.2712 20.7957C17.2712 20.1215 16.6158 19.6419 16.0065 19.9307C14.5882 20.6029 13.3519 21.6132 12.4135 22.8794C11.2054 24.5093 10.5541 26.4783 10.5542 28.5C10.5542 31.0196 11.5652 33.4359 13.3647 35.2175C15.1643 36.9991 17.605 38 20.1499 38C22.6948 38 25.1355 36.9991 26.9351 35.2175C28.4953 33.6728 29.4628 31.6508 29.6925 29.4982C29.7511 28.949 29.2978 28.5 28.7456 28.5H26.9073C26.355 28.5 25.9163 28.9512 25.819 29.4948C25.6144 30.6371 25.0609 31.699 24.221 32.5305C23.1413 33.5995 21.6769 34.2 20.1499 34.2C18.6229 34.2 17.1585 33.5995 16.0788 32.5305C14.9991 31.4616 14.3925 30.0117 14.3925 28.5C14.3952 27.502 14.6625 26.5223 15.1677 25.6587C15.5754 24.9618 16.1264 24.3603 16.7828 23.8918C17.0748 23.6833 17.2712 23.3576 17.2712 22.9988V20.7957Z" fill="#C4C4C4"/>
</svg>
