<svg width="39" height="38" viewBox="0 0 39 38" fill="none" xmlns="http://www.w3.org/2000/svg">
<path d="M10.8086 3.8C10.8086 4.80782 10.4016 5.77437 9.67731 6.48701C8.95298 7.19964 7.97059 7.6 6.94623 7.6C5.92188 7.6 4.93948 7.19964 4.21515 6.48701C3.49082 5.77437 3.0839 4.80782 3.0839 3.8C3.0839 2.79218 3.49082 1.82563 4.21515 1.11299C4.93948 0.400356 5.92188 0 6.94623 0C7.97059 0 8.95298 0.400356 9.67731 1.11299C10.4016 1.82563 10.8086 2.79218 10.8086 3.8ZM4.04948 9.5C1.90589 9.5 0.187149 11.191 0.187149 13.3V23.7C0.187149 24.2523 0.634864 24.7 1.18715 24.7H3.04948C3.60177 24.7 4.04948 25.1477 4.04948 25.7V37C4.04948 37.5523 4.4972 38 5.04948 38H8.53633C9.43698 38 9.92167 36.856 9.39871 36.1228C8.84944 35.3526 8.38342 34.5254 8.00979 33.6543C7.31008 32.023 6.94849 30.2706 6.94623 28.5C6.95035 26.1693 7.57693 23.8806 8.76319 21.8631C9.85174 20.0119 11.3765 18.4487 13.2055 17.3033C13.5104 17.1123 13.7053 16.7827 13.7053 16.423V13.3C13.7053 11.191 11.9866 9.5 9.84298 9.5H4.04948ZM20.4988 11.4C19.9465 11.4 19.4988 11.8477 19.4988 12.4V25.6C19.4988 26.1523 19.9465 26.6 20.4988 26.6H29.6251C29.9371 26.6 30.2312 26.7456 30.4204 26.9938L34.7375 32.657C35.0687 33.0914 35.6871 33.1798 36.1266 32.8555L37.6069 31.7631C38.0562 31.4315 38.147 30.7963 37.8085 30.3522L32.3516 23.1938C32.1624 22.9456 31.8683 22.8 31.5563 22.8H24.3611C23.8089 22.8 23.3611 22.3523 23.3611 21.8V12.4C23.3611 11.8477 22.9134 11.4 22.3611 11.4H20.4988ZM17.5676 20.7932C17.5676 20.1197 16.9136 19.6401 16.304 19.9265C14.8731 20.5987 13.6257 21.6105 12.6794 22.8794C11.4638 24.5093 10.8084 26.4783 10.8086 28.5C10.8086 31.0196 11.8259 33.4359 13.6367 35.2175C15.4475 36.9991 17.9035 38 20.4644 38C23.0253 38 25.4813 36.9991 27.2921 35.2175C28.8622 33.6728 29.8357 31.6508 30.0668 29.4982C30.1258 28.949 29.6725 28.5 29.1202 28.5H27.2579C26.7056 28.5 26.2669 28.9512 26.169 29.4947C25.9632 30.637 25.4062 31.699 24.561 32.5305C23.4745 33.5995 22.0009 34.2 20.4644 34.2C18.9279 34.2 17.4543 33.5995 16.3678 32.5305C15.2813 31.4616 14.6709 30.0117 14.6709 28.5C14.6736 27.502 14.9426 26.5223 15.451 25.6587C15.8613 24.9616 16.4161 24.3599 17.0768 23.8913C17.3703 23.6832 17.5676 23.3567 17.5676 22.997V20.7932Z" fill="#2E3440"/>
</svg>
