<svg width="38" height="38" viewBox="0 0 38 38" fill="none" xmlns="http://www.w3.org/2000/svg">
<path d="M36.2727 22.4545H13.8182V6.90909C13.8182 5.07669 13.0903 3.31933 11.7946 2.02363C10.4989 0.72792 8.7415 0 6.90909 0C5.07669 0 3.31933 0.72792 2.02363 2.02363C0.72792 3.31933 0 5.07669 0 6.90909V12.0909C0 12.549 0.18198 12.9883 0.505906 13.3123C0.829833 13.6362 1.26917 13.8182 1.72727 13.8182C2.18537 13.8182 2.62471 13.6362 2.94864 13.3123C3.27257 12.9883 3.45455 12.549 3.45455 12.0909V6.90909C3.45455 5.99289 3.81851 5.11421 4.46636 4.46636C5.11421 3.81851 5.99289 3.45455 6.90909 3.45455C7.82529 3.45455 8.70397 3.81851 9.35182 4.46636C9.99968 5.11421 10.3636 5.99289 10.3636 6.90909V24.1818C10.3636 27.8466 11.8195 31.3613 14.4109 33.9528C17.0023 36.5442 20.517 38 24.1818 38C27.8466 38 31.3613 36.5442 33.9528 33.9528C36.5442 31.3613 38 27.8466 38 24.1818C38 23.7237 37.818 23.2844 37.4941 22.9605C37.1702 22.6365 36.7308 22.4545 36.2727 22.4545ZM24.1818 34.5455C21.7333 34.5424 19.3648 33.674 17.4946 32.0936C15.6244 30.5133 14.373 28.3227 13.9615 25.9091H34.4021C33.9906 28.3227 32.7392 30.5133 30.8691 32.0936C28.9989 33.674 26.6303 34.5424 24.1818 34.5455Z" fill="black" fill-opacity="0.35"/>
</svg>
