<svg width="19" height="19" viewBox="0 0 19 19" fill="none" xmlns="http://www.w3.org/2000/svg">
<path d="M9.60388 2.01929C8.08723 2.01929 6.60465 2.46903 5.3436 3.31163C4.08256 4.15423 3.09969 5.35186 2.5193 6.75306C1.9389 8.15425 1.78704 9.69609 2.08293 11.1836C2.37881 12.6711 3.10914 14.0375 4.18157 15.1099C5.254 16.1823 6.62037 16.9127 8.10787 17.2085C9.59537 17.5044 11.1372 17.3526 12.5384 16.7722C13.9396 16.1918 15.1372 15.2089 15.9798 13.9479C16.8224 12.6868 17.2722 11.2042 17.2722 9.68759C17.2722 8.68057 17.0738 7.68342 16.6885 6.75306C16.3031 5.82269 15.7383 4.97735 15.0262 4.26528C14.3141 3.55321 13.4688 2.98837 12.5384 2.603C11.6081 2.21763 10.6109 2.01929 9.60388 2.01929ZM9.60388 15.8222C8.39056 15.8222 7.20449 15.4624 6.19566 14.7884C5.18682 14.1143 4.40053 13.1562 3.93621 12.0352C3.4719 10.9143 3.35041 9.68078 3.58712 8.49078C3.82382 7.30077 4.40809 6.20769 5.26604 5.34974C6.12398 4.4918 7.21707 3.90753 8.40707 3.67082C9.59708 3.43412 10.8305 3.5556 11.9515 4.01992C13.0725 4.48424 14.0306 5.27053 14.7046 6.27936C15.3787 7.2882 15.7385 8.47427 15.7385 9.68759C15.7385 11.3146 15.0922 12.875 13.9417 14.0254C12.7913 15.1759 11.2309 15.8222 9.60388 15.8222Z" fill="#FF4848"/>
<path d="M0.613465 10.1987C0.274658 10.1987 -1.20056e-08 9.92404 -2.68153e-08 9.58523V9.58523C-4.1625e-08 9.24643 0.274658 8.97177 0.613465 8.97177L1.84039 8.97177C2.1792 8.97177 2.45386 9.24643 2.45386 9.58523V9.58523C2.45386 9.92404 2.1792 10.1987 1.84039 10.1987L0.613465 10.1987Z" fill="#FF4848"/>
<path d="M8.88806 0.613427C8.88806 0.27462 9.16272 -3.75038e-05 9.50153 -3.75038e-05V-3.75038e-05C9.84033 -3.75038e-05 10.115 0.27462 10.115 0.613428L10.115 1.84035C10.115 2.17916 9.84033 2.45382 9.50153 2.45382V2.45382C9.16272 2.45382 8.88806 2.17916 8.88806 1.84035L8.88806 0.613427Z" fill="#FF4848"/>
<path d="M8.88806 17.1258C8.88806 16.787 9.16272 16.5123 9.50153 16.5123V16.5123C9.84033 16.5123 10.115 16.787 10.115 17.1258L10.115 18.3527C10.115 18.6915 9.84033 18.9662 9.50153 18.9662V18.9662C9.16272 18.9662 8.88806 18.6915 8.88806 18.3527L8.88806 17.1258Z" fill="#FF4848"/>
<path d="M18.392 8.97177C18.7278 8.97177 19 9.24398 19 9.57976V9.57976C19 9.91554 18.7278 10.1877 18.392 10.1877L17.176 10.1877C16.8403 10.1877 16.5681 9.91554 16.5681 9.57976V9.57976C16.5681 9.24398 16.8403 8.97177 17.176 8.97177L18.392 8.97177Z" fill="#FF4848"/>
<circle cx="9.5" cy="9.5" r="2.5" fill="#FF4848"/>
</svg>
