<svg width="43" height="47" viewBox="0 0 43 47" fill="none" xmlns="http://www.w3.org/2000/svg">
<g clip-path="url(#clip0_732:659)">
<path d="M29.4934 14.6283C29.4018 14.6288 29.3109 14.6113 29.226 14.5766C29.1411 14.5419 29.0639 14.4909 28.9989 14.4263L23.5864 9.00683C22.9074 8.32082 22.5266 7.39462 22.5266 6.42945C22.5266 5.46428 22.9074 4.53809 23.5864 3.85207C24.2706 3.16977 25.1975 2.78662 26.1637 2.78662C27.13 2.78662 28.0569 3.16977 28.7411 3.85207L29.4934 4.60439L30.2457 3.85207C30.93 3.16977 31.8568 2.78662 32.8231 2.78662C33.7894 2.78662 34.7163 3.16977 35.4005 3.85207C36.0794 4.53809 36.4603 5.46428 36.4603 6.42945C36.4603 7.39462 36.0794 8.32082 35.4005 9.00683L29.988 14.4263C29.9229 14.4909 29.8457 14.5419 29.7609 14.5766C29.676 14.6113 29.5851 14.6288 29.4934 14.6283ZM26.1637 4.17947C25.8689 4.17814 25.5766 4.23532 25.304 4.34772C25.0314 4.46012 24.7838 4.62549 24.5755 4.83426C24.1548 5.25718 23.9187 5.82944 23.9187 6.42597C23.9187 7.0225 24.1548 7.59476 24.5755 8.01768L29.4934 12.9426L34.4114 8.01768C34.832 7.59476 35.0682 7.0225 35.0682 6.42597C35.0682 5.82944 34.832 5.25718 34.4114 4.83426C33.982 4.42865 33.4138 4.20266 32.8231 4.20266C32.2325 4.20266 31.6642 4.42865 31.2349 4.83426L29.988 6.08812C29.9233 6.15341 29.8462 6.20524 29.7613 6.2406C29.6764 6.27597 29.5854 6.29417 29.4934 6.29417C29.4015 6.29417 29.3104 6.27597 29.2255 6.2406C29.1407 6.20524 29.0636 6.15341 28.9989 6.08812L27.752 4.83426C27.5437 4.62549 27.2961 4.46012 27.0235 4.34772C26.7508 4.23532 26.4586 4.17814 26.1637 4.17947Z" fill="#C4C4C4"/>
</g>
<path d="M16.0872 23.7629C17.5013 23.7629 18.8837 23.3436 20.0595 22.558C21.2353 21.7723 22.1517 20.6557 22.6929 19.3492C23.234 18.0427 23.3756 16.6051 23.0997 15.2182C22.8238 13.8312 22.1429 12.5572 21.143 11.5573C20.143 10.5574 18.869 9.8764 17.4821 9.60052C16.0951 9.32464 14.6575 9.46623 13.3511 10.0074C12.0446 10.5485 10.9279 11.465 10.1423 12.6408C9.35665 13.8166 8.93732 15.1989 8.93732 16.613C8.93732 18.5093 9.69061 20.3279 11.0315 21.6688C12.3723 23.0096 14.1909 23.7629 16.0872 23.7629ZM16.0872 13.0381C16.7943 13.0381 17.4854 13.2478 18.0733 13.6406C18.6612 14.0334 19.1195 14.5917 19.39 15.245C19.6606 15.8982 19.7314 16.617 19.5935 17.3105C19.4555 18.0039 19.115 18.6409 18.6151 19.1409C18.1151 19.6409 17.4781 19.9813 16.7846 20.1193C16.0912 20.2572 15.3724 20.1864 14.7191 19.9159C14.0659 19.6453 13.5076 19.1871 13.1148 18.5992C12.7219 18.0113 12.5123 17.3201 12.5123 16.613C12.5123 15.6649 12.8889 14.7556 13.5593 14.0852C14.2298 13.4147 15.1391 13.0381 16.0872 13.0381Z" fill="#C4C4C4"/>
<path d="M30.387 27.3379C31.4476 27.3379 32.4844 27.0234 33.3662 26.4342C34.2481 25.8449 34.9354 25.0074 35.3412 24.0276C35.7471 23.0477 35.8533 21.9695 35.6464 20.9293C35.4395 19.8891 34.9288 18.9336 34.1788 18.1837C33.4289 17.4337 32.4734 16.923 31.4332 16.7161C30.393 16.5092 29.3148 16.6154 28.3349 17.0212C27.3551 17.4271 26.5176 18.1144 25.9283 18.9963C25.3391 19.8781 25.0246 20.9149 25.0246 21.9755C25.0246 23.3977 25.5896 24.7616 26.5952 25.7673C27.6009 26.7729 28.9648 27.3379 30.387 27.3379ZM30.387 20.188C30.7405 20.188 31.0861 20.2928 31.3801 20.4892C31.674 20.6856 31.9031 20.9648 32.0384 21.2914C32.1737 21.618 32.2091 21.9774 32.1401 22.3242C32.0712 22.6709 31.9009 22.9894 31.651 23.2394C31.401 23.4894 31.0825 23.6596 30.7357 23.7286C30.389 23.7976 30.0296 23.7622 29.703 23.6269C29.3764 23.4916 29.0972 23.2625 28.9008 22.9685C28.7044 22.6746 28.5995 22.329 28.5995 21.9755C28.5995 21.5014 28.7879 21.0467 29.1231 20.7115C29.4583 20.3763 29.913 20.188 30.387 20.188Z" fill="#C4C4C4"/>
<path d="M30.3871 29.1255C28.4062 29.1277 26.4822 29.7879 24.9174 31.0024C23.1666 29.2584 20.9386 28.072 18.5143 27.5926C16.0901 27.1133 13.5782 27.3625 11.2955 28.3089C9.01269 29.2553 7.06126 30.8564 5.68728 32.9104C4.3133 34.9644 3.57829 37.3792 3.57495 39.8504C3.57495 40.3244 3.76327 40.7791 4.09849 41.1143C4.43371 41.4495 4.88836 41.6378 5.36242 41.6378C5.83649 41.6378 6.29114 41.4495 6.62636 41.1143C6.96158 40.7791 7.1499 40.3244 7.1499 39.8504C7.1499 37.48 8.09151 35.2068 9.76759 33.5307C11.4437 31.8546 13.7169 30.913 16.0873 30.913C18.4576 30.913 20.7309 31.8546 22.4069 33.5307C24.083 35.2068 25.0246 37.48 25.0246 39.8504C25.0246 40.3244 25.213 40.7791 25.5482 41.1143C25.8834 41.4495 26.338 41.6378 26.8121 41.6378C27.2862 41.6378 27.7408 41.4495 28.076 41.1143C28.4113 40.7791 28.5996 40.3244 28.5996 39.8504C28.6038 37.7562 28.0748 35.6955 27.0624 33.8623C27.8523 33.2381 28.802 32.8489 29.8028 32.7392C30.8036 32.6295 31.815 32.8038 32.7214 33.242C33.6278 33.6803 34.3925 34.3649 34.928 35.2175C35.4635 36.07 35.7482 37.0561 35.7495 38.0629C35.7495 38.537 35.9378 38.9916 36.273 39.3268C36.6082 39.6621 37.0629 39.8504 37.5369 39.8504C38.011 39.8504 38.4657 39.6621 38.8009 39.3268C39.1361 38.9916 39.3244 38.537 39.3244 38.0629C39.3244 35.6926 38.3828 33.4193 36.7067 31.7432C35.0306 30.0671 32.7574 29.1255 30.3871 29.1255Z" fill="#C4C4C4"/>
<defs>
<clipPath id="clip0_732:659">
<rect width="16.7181" height="16.7181" fill="white" transform="translate(21.1343)"/>
</clipPath>
</defs>
</svg>
